REM DIRINDEX 1\2,1\3,1\4,1\5
REM DIRNAME folder01,folder02,folder03,folder04,folder05
TITLE ""
FILE "145.mp3" MP3
  TRACK 01 AUDIO
    TITLE "0:"
    INDEX 01 00:00:00
  TRACK 02 AUDIO
    TITLE "2:cjc046_3931"
    INDEX 01 00:00:13
  TRACK 03 AUDIO
    TITLE "0:"
    INDEX 01 00:01:17
  TRACK 04 AUDIO
    TITLE "3:cjc046_3932"
    INDEX 01 00:01:40
  TRACK 05 AUDIO
    TITLE "0:"
    INDEX 01 00:02:53
  TRACK 06 AUDIO
    TITLE "4:cjc046_3933"
    INDEX 01 00:02:71
  TRACK 07 AUDIO
    TITLE "0:"
    INDEX 01 00:03:72
  TRACK 08 AUDIO
    TITLE "2:cjc046_3934"
    INDEX 01 00:05:07
  TRACK 09 AUDIO
    TITLE "0:"
    INDEX 01 00:06:08
  TRACK 10 AUDIO
    TITLE "3:cjc046_3935"
    INDEX 01 00:06:30
  TRACK 11 AUDIO
    TITLE "0:"
    INDEX 01 00:07:27
  TRACK 12 AUDIO
    TITLE "4:cjc046_3936"
    INDEX 01 00:07:51
  TRACK 13 AUDIO
    TITLE "0:"
    INDEX 01 00:08:54
  TRACK 14 AUDIO
    TITLE "2:cjc046_3937"
    INDEX 01 00:09:65
  TRACK 15 AUDIO
    TITLE "0:"
    INDEX 01 00:10:72
  TRACK 16 AUDIO
    TITLE "3:cjc046_3938"
    INDEX 01 00:11:19
  TRACK 17 AUDIO
    TITLE "0:"
    INDEX 01 00:12:30
  TRACK 18 AUDIO
    TITLE "4:cjc046_3939"
    INDEX 01 00:12:48
  TRACK 19 AUDIO
    TITLE "0:"
    INDEX 01 00:13:53
  TRACK 20 AUDIO
    TITLE "2:cjc046_3940"
    INDEX 01 00:14:64
  TRACK 21 AUDIO
    TITLE "0:"
    INDEX 01 00:16:14
  TRACK 22 AUDIO
    TITLE "3:cjc046_3941"
    INDEX 01 00:16:34
  TRACK 23 AUDIO
    TITLE "0:"
    INDEX 01 00:17:51
  TRACK 24 AUDIO
    TITLE "4:cjc046_3942"
    INDEX 01 00:17:63
  TRACK 25 AUDIO
    TITLE "0:"
    INDEX 01 00:19:11
  TRACK 26 AUDIO
    TITLE "2:cjc046_3943"
    INDEX 01 00:20:20
  TRACK 27 AUDIO
    TITLE "0:"
    INDEX 01 00:21:33
  TRACK 28 AUDIO
    TITLE "3:cjc046_3944"
    INDEX 01 00:21:53
  TRACK 29 AUDIO
    TITLE "0:"
    INDEX 01 00:22:74
  TRACK 30 AUDIO
    TITLE "4:cjc046_3945"
    INDEX 01 00:23:16
  TRACK 31 AUDIO
    TITLE "0:"
    INDEX 01 00:24:29
  TRACK 32 AUDIO
    TITLE "2:cjc046_3946"
    INDEX 01 00:25:37
  TRACK 33 AUDIO
    TITLE "0:"
    INDEX 01 00:26:38
  TRACK 34 AUDIO
    TITLE "3:cjc046_3947"
    INDEX 01 00:26:54
  TRACK 35 AUDIO
    TITLE "0:"
    INDEX 01 00:27:69
  TRACK 36 AUDIO
    TITLE "4:cjc046_3948"
    INDEX 01 00:28:10
  TRACK 37 AUDIO
    TITLE "0:"
    INDEX 01 00:29:11
  TRACK 38 AUDIO
    TITLE "2:cjc046_3949"
    INDEX 01 00:30:10
  TRACK 39 AUDIO
    TITLE "0:"
    INDEX 01 00:31:18
  TRACK 40 AUDIO
    TITLE "3:cjc046_3950"
    INDEX 01 00:31:39
  TRACK 41 AUDIO
    TITLE "0:"
    INDEX 01 00:33:24
  TRACK 42 AUDIO
    TITLE "4:cjc046_3951"
    INDEX 01 00:33:36
  TRACK 43 AUDIO
    TITLE "0:"
    INDEX 01 00:34:42
  TRACK 44 AUDIO
    TITLE "2:cjc046_3952"
    INDEX 01 00:35:47
  TRACK 45 AUDIO
    TITLE "0:"
    INDEX 01 00:36:54
  TRACK 46 AUDIO
    TITLE "3:cjc046_3953"
    INDEX 01 00:36:72
  TRACK 47 AUDIO
    TITLE "0:"
    INDEX 01 00:38:14
  TRACK 48 AUDIO
    TITLE "4:cjc046_3954"
    INDEX 01 00:38:22
  TRACK 49 AUDIO
    TITLE "0:"
    INDEX 01 00:39:29
  TRACK 50 AUDIO
    TITLE "2:cjc046_3955"
    INDEX 01 00:40:34
  TRACK 51 AUDIO
    TITLE "0:"
    INDEX 01 00:41:63
  TRACK 52 AUDIO
    TITLE "3:cjc046_3956"
    INDEX 01 00:42:00
  TRACK 53 AUDIO
    TITLE "0:"
    INDEX 01 00:43:23
  TRACK 54 AUDIO
    TITLE "4:cjc046_3957"
    INDEX 01 00:43:37
  TRACK 55 AUDIO
    TITLE "0:"
    INDEX 01 00:44:65
  TRACK 56 AUDIO
    TITLE "2:cjc046_3958"
    INDEX 01 00:45:69
  TRACK 57 AUDIO
    TITLE "0:"
    INDEX 01 00:47:05
  TRACK 58 AUDIO
    TITLE "3:cjc046_3959"
    INDEX 01 00:47:27
  TRACK 59 AUDIO
    TITLE "0:"
    INDEX 01 00:48:36
  TRACK 60 AUDIO
    TITLE "4:cjc046_3960"
    INDEX 01 00:48:53
  TRACK 61 AUDIO
    TITLE "0:"
    INDEX 01 00:49:65
  TRACK 62 AUDIO
    TITLE "2:cjc046_3961"
    INDEX 01 00:50:72
  TRACK 63 AUDIO
    TITLE "0:"
    INDEX 01 00:52:02
  TRACK 64 AUDIO
    TITLE "3:cjc046_3962"
    INDEX 01 00:52:24
  TRACK 65 AUDIO
    TITLE "0:"
    INDEX 01 00:53:23
  TRACK 66 AUDIO
    TITLE "4:cjc046_3963"
    INDEX 01 00:53:41
  TRACK 67 AUDIO
    TITLE "0:"
    INDEX 01 00:54:44
  TRACK 68 AUDIO
    TITLE "2:cjc046_3964"
    INDEX 01 00:55:55
  TRACK 69 AUDIO
    TITLE "0:"
    INDEX 01 00:56:74
  TRACK 70 AUDIO
    TITLE "3:cjc046_3965"
    INDEX 01 00:57:23
  TRACK 71 AUDIO
    TITLE "0:"
    INDEX 01 00:58:50
  TRACK 72 AUDIO
    TITLE "4:cjc046_3966"
    INDEX 01 00:58:66
  TRACK 73 AUDIO
    TITLE "0:"
    INDEX 01 01:00:08
  TRACK 74 AUDIO
    TITLE "2:cjc046_3967"
    INDEX 01 01:01:23
  TRACK 75 AUDIO
    TITLE "0:"
    INDEX 01 01:02:36
  TRACK 76 AUDIO
    TITLE "3:cjc046_3968"
    INDEX 01 01:02:52
  TRACK 77 AUDIO
    TITLE "0:"
    INDEX 01 01:04:48
  TRACK 78 AUDIO
    TITLE "4:cjc046_3969"
    INDEX 01 01:04:66
  TRACK 79 AUDIO
    TITLE "0:"
    INDEX 01 01:06:02
  TRACK 80 AUDIO
    TITLE "2:cjc046_3970"
    INDEX 01 01:07:10
  TRACK 81 AUDIO
    TITLE "0:"
    INDEX 01 01:08:35
  TRACK 82 AUDIO
    TITLE "3:cjc046_3971"
    INDEX 01 01:08:54
  TRACK 83 AUDIO
    TITLE "0:"
    INDEX 01 01:10:02
  TRACK 84 AUDIO
    TITLE "4:cjc046_3972"
    INDEX 01 01:10:20
  TRACK 85 AUDIO
    TITLE "0:"
    INDEX 01 01:11:45
  TRACK 86 AUDIO
    TITLE "2:cjc046_3973"
    INDEX 01 01:12:54
  TRACK 87 AUDIO
    TITLE "0:"
    INDEX 01 01:13:65
  TRACK 88 AUDIO
    TITLE "3:cjc046_3974"
    INDEX 01 01:14:10
  TRACK 89 AUDIO
    TITLE "0:"
    INDEX 01 01:15:29
  TRACK 90 AUDIO
    TITLE "4:cjc046_3975"
    INDEX 01 01:15:39
  TRACK 91 AUDIO
    TITLE "0:"
    INDEX 01 01:16:50
